# xmcd CD database file
#
# Track frame offsets:
#	150
#	16277
#	28591
#	46627
#	56119
#	68155
#	84757
#	104763
#	118183
#	131535
#	145239
#	160259
#	177691
#	191167
#	205963
#	217053
#	230859
#
# Disc length: 3372 seconds
#
# Revision: 2
# Processed by: cddbd v1.5.2PL0 Copyright (c) Steve Scherf et al.
# Submitted via: CDex 1.51
#
DISCID=020d2a11
DTITLE=Orginal Cast Recording - 07 - Porgy and Bess
DYEAR=2001
DGENRE=Jazz
TTITLE0=Overture ... Summertime
TTITLE1=A women is a someting thing
TTITLE2=My man's gone now
TTITLE3=It takes a long pull to get  there
TTITLE4=I got plenty o'nuttin'
TTITLE5=Buzzard song
TTITLE6=Bess, you is my woman now
TTITLE7=It ain't necessary so
TTITLE8=What you want wid Bess
TTITLE9=Street cries
TTITLE10=I loves you, Porgy
TTITLE11=The requiem
TTITLE12=There's a boat dats leaving soon for NY
TTITLE13=Porgy's lament
TTITLE14=Summertime
TTITLE15=I got plenty o'nuttin'
TTITLE16=Bess, you is my women now
EXTD=YEAR: 2001
EXTT0=
EXTT1=
EXTT2=
EXTT3=
EXTT4=
EXTT5=
EXTT6=
EXTT7=
EXTT8=
EXTT9=
EXTT10=
EXTT11=
EXTT12=
EXTT13=
EXTT14=
EXTT15=
EXTT16=
PLAYORDER=
